<?xml version="1.0" standalone="no"?>
<!DOCTYPE svg PUBLIC "-//W3C//DTD SVG 20010904//EN"
 "http://www.w3.org/TR/2001/REC-SVG-20010904/DTD/svg10.dtd">
<svg version="1.0" xmlns="http://www.w3.org/2000/svg"
 width="700.000000pt" height="700.000000pt" viewBox="0 0 700.000000 700.000000"
 preserveAspectRatio="xMidYMid meet">
<metadata>
Created by potrace 1.11, written by Peter Selinger 2001-2013
</metadata>
<g transform="translate(0.000000,700.000000) scale(0.100000,-0.100000)"
fill="#000000" stroke="none">
<path d="M4693 6057 c-4 -7 -13 -21 -19 -32 -25 -48 -101 -187 -144 -265 -26
-47 -69 -125 -95 -175 -26 -49 -57 -102 -67 -117 -11 -16 -16 -28 -12 -28 4 0
0 -8 -8 -17 -8 -10 -36 -56 -60 -103 -25 -47 -71 -132 -103 -190 -32 -58 -71
-130 -88 -160 -16 -30 -70 -129 -120 -220 -49 -91 -101 -185 -115 -210 -13
-25 -38 -70 -55 -100 -16 -30 -160 -293 -320 -585 -159 -291 -303 -555 -320
-585 -16 -30 -42 -77 -57 -105 -15 -27 -80 -147 -145 -265 -64 -118 -125 -228
-135 -245 -10 -16 -37 -66 -60 -110 -24 -44 -54 -100 -68 -125 -14 -25 -41
-74 -60 -110 -20 -36 -69 -126 -110 -200 -41 -74 -90 -164 -110 -200 -19 -36
-60 -110 -90 -165 -47 -86 -154 -281 -265 -485 -16 -30 -38 -69 -49 -87 l-19
-32 23 -14 c13 -8 68 -39 123 -69 55 -30 131 -72 168 -92 38 -21 70 -36 72
-34 4 4 459 834 728 1328 16 30 37 69 47 85 9 17 33 59 52 95 20 36 75 137
123 225 48 88 101 185 118 215 32 60 67 123 117 215 28 50 114 208 281 513 31
56 60 110 129 237 24 44 46 85 50 90 4 6 24 42 45 80 72 135 108 200 130 240
32 56 188 342 243 445 25 47 54 97 64 112 10 14 18 29 18 32 0 3 37 72 81 153
45 81 109 198 142 258 33 61 71 130 85 155 13 25 40 74 60 110 19 36 46 85 60
110 14 25 40 74 60 110 19 36 41 74 48 85 8 11 14 24 14 31 0 9 -308 185 -362
206 -10 4 -21 2 -25 -5z"/>
<path d="M1006 4350 l-850 -850 853 -851 853 -851 155 154 154 154 -697 697
-696 698 696 697 696 697 -152 152 c-84 84 -155 153 -158 153 -3 -1 -387 -383
-854 -850z"/>
<path d="M4982 5047 l-153 -153 697 -697 697 -696 -697 -697 -697 -698 154
-154 155 -154 853 851 853 851 -851 850 c-468 468 -852 850 -854 850 -3 0 -73
-69 -157 -153z"/>
</g>
</svg>
